<svg width="200" height="48" viewBox="0 0 200 48" fill="none" xmlns="http://www.w3.org/2000/svg">
<path d="M7.66625 3.05124C7.03822 3.24709 6.53045 3.69103 6.23648 4.27859C5.39466 5.97598 6.51709 7.76477 8.41454 7.76477C9.48352 7.76477 10.165 7.36001 10.646 6.43297C11.4077 4.9706 10.3654 3.14264 8.68178 2.99901C8.321 2.9729 7.86668 2.99901 7.66625 3.05124Z" fill="white"/>
<path d="M14.2136 3.05151C12.8106 3.49544 12.089 5.16672 12.7571 6.43324C13.2516 7.36028 13.9197 7.76504 15.0154 7.76504C15.8038 7.76504 16.4451 7.45168 16.9529 6.82495C17.7814 5.80651 17.5008 4.09606 16.3783 3.37793C15.8305 3.02539 14.8016 2.86871 14.2136 3.05151Z" fill="white"/>
<path d="M25.5184 3.35192C25.3046 3.50861 24.4227 4.33119 23.5675 5.16683C22.2045 6.47252 21.9907 6.73366 21.9907 7.09925C21.9907 7.67375 22.4985 8.15686 23.1265 8.15686H23.5942V15.3642V22.5847L24.0485 21.5793C24.8636 19.7383 26.3201 18.0931 27.9503 17.14L28.6719 16.7091V12.4395V8.15686H29.1262C29.8611 8.15686 30.3422 7.64764 30.2887 6.92951C30.2754 6.64226 27.1887 3.52166 26.6408 3.24747C26.1464 2.99939 25.9727 3.01245 25.5184 3.35192Z" fill="white"/>
<path d="M69.0126 3.70415L68.6919 3.95223L68.6518 24.2426C68.6251 38.7488 68.6652 44.6244 68.7721 44.8725C69.0527 45.5514 70.135 45.6298 70.4825 44.99C70.5894 44.8072 70.6294 38.4746 70.6294 24.3732V4.01752L70.3221 3.74332C69.9346 3.39079 69.4268 3.37773 69.0126 3.70415Z" fill="white"/>
<path d="M10.6328 9.12244C8.7487 9.51414 7.66636 10.0234 6.20986 11.1985C2.8292 13.9274 0.74468 18.8759 1.26581 22.9758C1.77358 27.0234 3.8581 30.4313 7.19867 32.6771C12.4367 36.2024 19.4786 35.7193 24.1822 31.5281L25.1476 30.6873L24.7467 30.1487C23.8915 28.6994 23.0731 26.2139 23.2468 24.8038L23.327 24.1509L23.0196 24.8038C21.6433 27.833 19.1446 29.687 15.9109 30.0918C12.3565 30.5357 8.73534 28.6294 7.17195 25.4958C6.45039 24.0726 6.22323 23.1194 6.22323 21.6048C6.22323 20.0902 6.45039 19.1371 7.17195 17.7139C8.41464 15.2331 11.8888 12.8828 12.8108 13.8752C12.9979 14.071 13.038 14.4235 13.038 15.8337V17.5572H12.5035C11.8354 17.5572 11.4345 17.9097 11.4345 18.5103C11.4345 18.889 11.6483 19.1501 13.2785 20.73C14.9221 22.3099 15.176 22.5188 15.5768 22.5188C15.9777 22.5188 16.2316 22.3099 17.8752 20.73C19.5054 19.1501 19.7192 18.889 19.7192 18.5103C19.7192 17.9097 19.3183 17.5572 18.6502 17.5572H18.1157V15.6248C18.1157 14.5541 18.0489 13.3398 17.9687 12.922C17.7014 11.4988 16.8463 10.2976 15.7372 9.73611C14.3876 9.07021 12.1962 8.79602 10.6328 9.12244Z" fill="white"/>
<path d="M195.032 11.5254C194.511 11.6821 194.311 12.5308 194.712 12.9094C194.992 13.1967 195.607 13.1706 195.874 12.8833C196.115 12.6352 196.168 12.113 195.995 11.8518C195.861 11.6429 195.286 11.4471 195.032 11.5254Z" fill="white"/>
<path d="M179.826 13.9799C178.49 14.9722 177.394 15.8339 177.394 15.9123C177.394 15.9906 177.595 16.2779 177.835 16.5521L178.263 17.0482L179.532 17.0743C180.975 17.1004 181.55 17.3355 181.978 18.0536C182.312 18.602 182.365 19.8555 182.071 20.0382C181.951 20.1166 179.866 20.1558 176.699 20.1427L171.528 20.1035L171.221 19.8032C170.94 19.529 170.914 19.3854 170.873 17.6227L170.833 15.7295H170.245C169.845 15.7295 169.617 15.7948 169.537 15.9384C169.444 16.0951 169.35 16.1212 169.163 16.0167C168.629 15.7425 167.8 15.7034 167.065 15.9123C165.569 16.3432 164.727 17.8577 165.074 19.4899C165.408 21.0436 166.517 21.8662 168.228 21.8662C168.749 21.8532 169.417 21.7748 169.698 21.6704C170.112 21.5267 170.286 21.5267 170.499 21.6442C170.7 21.7618 172.37 21.8009 176.726 21.8009C182.165 21.8009 182.712 21.7748 183.1 21.5659C183.781 21.2134 183.995 20.678 183.995 19.3854C183.995 18.1058 183.741 17.3877 182.953 16.5521C182.525 16.082 182.231 15.9123 181.149 15.5075C180.842 15.39 180.868 15.3508 181.951 14.5544C182.565 14.0974 183.127 13.6795 183.193 13.6273C183.287 13.549 182.94 13.0006 182.338 12.2955C182.285 12.2433 181.162 13.0006 179.826 13.9799ZM168.642 17.6097C169.016 17.9753 169.176 18.6542 169.07 19.4115C168.989 20.0252 168.816 20.1688 168.174 20.1688C167.493 20.1688 167.079 19.9077 166.865 19.3593C166.491 18.3931 167.038 17.2963 167.907 17.2963C168.161 17.2963 168.442 17.4138 168.642 17.6097Z" fill="white"/>
<path d="M97.8887 17.2965V21.8664H98.7572H99.6258V17.2965V12.7266H98.7572H97.8887V17.2965Z" fill="white"/>
<path d="M119.268 15.8859C119.268 18.6409 119.241 19.124 119.028 19.5157C118.894 19.7768 118.667 19.9988 118.466 20.051C117.932 20.1947 114.858 20.1816 114.578 20.038C114.364 19.9205 114.324 19.7507 114.324 19.0457C114.324 17.7922 114.097 17.0741 113.509 16.4996C112.533 15.5464 110.756 15.5203 109.22 16.4473C108.805 16.6954 108.431 16.9043 108.391 16.9043C108.351 16.9043 108.311 16.6432 108.311 16.3168V15.7292H107.442H106.574V17.9489V20.1685H105.304H104.035V17.9489V15.7292H103.166H102.311L102.271 19.1371L102.231 22.5449L101.844 22.8713C101.536 23.1325 101.376 23.1716 100.975 23.1063C100.494 23.028 100.494 23.028 100.213 23.7461L99.9194 24.4643L100.334 24.5948C101.216 24.8951 102.498 24.6732 103.14 24.1117C103.501 23.7984 103.875 23.028 103.982 22.4013L104.075 21.8659H108.03C111.424 21.8529 112.079 21.8268 112.654 21.6309C113.255 21.422 113.362 21.422 113.723 21.6048C114.017 21.7484 114.698 21.8137 116.395 21.8398C118.359 21.879 118.787 21.8529 119.428 21.644C120.11 21.409 120.217 21.409 120.564 21.5917C120.805 21.7093 121.459 21.8007 122.355 21.8398C124.787 21.9443 125.762 21.4742 126.069 20.038C126.15 19.6593 126.216 17.9489 126.216 16.0556V12.7261H125.361H124.493L124.453 16.1209C124.413 19.4504 124.413 19.5157 124.105 19.803C123.838 20.0641 123.664 20.1033 122.742 20.1033C121.82 20.1033 121.647 20.0641 121.379 19.803C121.072 19.5157 121.072 19.4504 121.032 16.1209L120.992 12.7261H120.137H119.268V15.8859ZM112.32 17.7661C112.574 18.0142 112.6 19.6854 112.346 19.9335C112.226 20.051 111.598 20.1163 110.248 20.1424L108.311 20.1947V19.7507C108.311 19.3721 108.418 19.2154 108.952 18.7845C109.901 18.0011 110.342 17.7269 110.85 17.5833C111.398 17.4266 112.039 17.5049 112.32 17.7661Z" fill="white"/>
<path d="M139.82 16.0169C139.793 18.328 139.726 19.4117 139.619 19.6076C139.245 20.2343 137.321 20.3649 136.733 19.7904C136.466 19.5292 136.439 19.3464 136.372 17.649L136.305 15.795L135.717 15.7558C135.303 15.7297 135.089 15.7688 135.009 15.8994C134.916 16.0692 134.822 16.0692 134.274 15.9125C133.259 15.5991 131.896 15.9255 131.268 16.6045C130.813 17.0876 130.493 18.0016 130.493 18.798C130.493 20.1951 131.254 21.318 132.484 21.7228C133.085 21.9186 134.448 21.8925 135.063 21.6836C135.477 21.54 135.677 21.54 136.265 21.6967C137.147 21.9317 139.566 21.8664 140.247 21.5792C140.661 21.4094 140.755 21.4225 141.116 21.5922C141.704 21.8925 146.487 21.9709 147.302 21.6967C147.837 21.5139 147.93 21.5139 148.438 21.7489C149.2 22.0753 150.576 22.0884 151.244 21.7489C151.685 21.5269 151.792 21.5269 152.233 21.6836C152.607 21.8142 153.716 21.8534 156.589 21.8664H160.424V21.0177V20.169H159.021C157.645 20.169 157.618 20.169 157.391 19.8165C157.231 19.5684 157.15 19.2028 157.15 18.6414C157.15 17.9232 157.191 17.7796 157.525 17.4662C157.859 17.1268 157.979 17.1006 158.888 17.1137H159.876L160.09 16.5261C160.197 16.2128 160.291 15.8733 160.291 15.7819C160.291 15.5208 159.248 15.2988 158.353 15.3771C157.03 15.4685 156.001 16.1475 155.56 17.192C155.32 17.7274 155.28 19.0984 155.467 19.7512L155.6 20.169H154.344C153.489 20.169 153.062 20.1168 152.981 19.9993C152.928 19.9209 152.901 19.4509 152.928 18.9808C152.968 17.8971 152.607 16.9831 151.859 16.3303C150.443 15.0768 148.051 15.4947 147.169 17.1529C146.862 17.7274 146.795 18.0146 146.795 18.798C146.795 20.2082 146.808 20.1951 144.296 20.1429L142.225 20.1037L141.904 19.7381L141.583 19.3725V16.043V12.7266H140.728H139.873L139.82 16.0169ZM150.656 17.4401C151.512 18.2235 151.365 19.8818 150.389 20.3649C149.494 20.8219 148.665 20.2212 148.559 19.0592C148.492 18.2497 148.692 17.649 149.12 17.3618C149.521 17.0745 150.296 17.1137 150.656 17.4401ZM133.873 17.4401C134.06 17.5185 134.274 17.7274 134.354 17.9102C134.555 18.328 134.541 19.8165 134.341 20.0123C134.247 20.1037 133.913 20.169 133.593 20.169C133.125 20.169 132.938 20.0907 132.604 19.7773C132.23 19.3987 132.203 19.3203 132.257 18.6414C132.31 18.0407 132.39 17.8449 132.684 17.5968C133.085 17.2704 133.392 17.2182 133.873 17.4401Z" fill="white"/>
<path d="M82.9495 13.3271C82.5754 13.5752 82.5486 14.2933 82.8961 14.5937C83.4573 15.0898 84.259 14.6981 84.259 13.9278C84.259 13.5099 83.8715 13.1182 83.4573 13.1182C83.337 13.1182 83.1099 13.2096 82.9495 13.3271Z" fill="white"/>
<path d="M84.9271 13.3794C84.4059 13.8886 84.7801 14.8156 85.5016 14.8156C85.8758 14.8156 86.0495 14.6981 86.2499 14.3325C86.4637 13.9278 86.437 13.7972 86.0629 13.4447C85.6754 13.053 85.2878 13.0268 84.9271 13.3794Z" fill="white"/>
<path d="M92.1427 13.379C91.5949 13.9143 91.969 14.8152 92.7574 14.8152C93.4389 14.8152 93.7729 13.7968 93.2117 13.3529C92.8242 13.0526 92.4768 13.0526 92.1427 13.379Z" fill="white"/>
<path d="M131.962 13.3794C131.441 13.8886 131.815 14.8156 132.537 14.8156C132.911 14.8156 133.085 14.6981 133.285 14.3325C133.499 13.9278 133.472 13.7972 133.098 13.4447C132.711 13.053 132.323 13.0268 131.962 13.3794Z" fill="white"/>
<path d="M134.034 13.4447C133.846 13.6144 133.699 13.8364 133.699 13.9408C133.699 14.2803 134.247 14.8156 134.581 14.8156C134.996 14.8156 135.437 14.3848 135.437 13.9669C135.437 13.5752 135.009 13.1182 134.635 13.1182C134.474 13.1182 134.207 13.2619 134.034 13.4447Z" fill="white"/>
<path d="M166.504 13.4447C166.317 13.6144 166.17 13.8364 166.17 13.9408C166.17 14.2803 166.718 14.8156 167.052 14.8156C167.466 14.8156 167.907 14.3848 167.907 13.9669C167.907 13.5752 167.479 13.1182 167.105 13.1182C166.945 13.1182 166.678 13.2619 166.504 13.4447Z" fill="white"/>
<path d="M168.575 13.379C168.027 13.9143 168.388 14.8152 169.136 14.8152C169.871 14.8152 170.219 13.7315 169.617 13.3267C169.216 13.0526 168.896 13.0656 168.575 13.379Z" fill="white"/>
<path d="M193.696 13.3794C193.175 13.8886 193.549 14.8156 194.284 14.8156C194.712 14.8156 195.206 14.2281 195.086 13.8494C194.979 13.4969 194.538 13.1182 194.217 13.1182C194.084 13.1182 193.843 13.2357 193.696 13.3794Z" fill="white"/>
<path d="M195.767 13.4446C195.58 13.6144 195.433 13.8233 195.433 13.9016C195.433 14.1105 195.714 14.5936 195.888 14.7112C196.369 15.0376 197.17 14.5675 197.17 13.9669C197.17 13.5752 196.743 13.1182 196.369 13.1182C196.208 13.1182 195.941 13.2618 195.767 13.4446Z" fill="white"/>
<path d="M46.3101 15.8081C43.3036 16.3826 40.5777 18.3019 39.2414 20.8089C38.3462 22.5062 38.0923 23.5116 38.0923 25.3918C38.0923 27.2851 38.3462 28.2904 39.2682 30.027C40.2169 31.8158 42.1945 33.5263 44.3058 34.3619C45.8157 34.9495 46.8179 35.0539 51.0938 35.0539C54.8486 35.0539 55.0758 35.0409 55.637 34.7797C57.1603 34.0485 57.4543 31.9464 56.1715 30.7843C55.6103 30.262 55.2361 30.2229 51.6149 30.2229C47.6597 30.2229 46.858 30.1315 45.6821 29.57C44.0118 28.7605 43.1031 27.2981 43.1031 25.3918C43.1031 24.0078 43.4639 23.0807 44.3458 22.1668C46.2166 20.2343 49.2765 20.0646 51.2408 21.8012C52.1762 22.6238 53.1783 22.8457 54.1538 22.454C54.8219 22.1798 55.1159 21.9056 55.4098 21.2789C56.1581 19.699 55.2228 18.2628 52.5904 16.9179C50.9067 16.0561 50.0515 15.8342 48.2476 15.795C47.3657 15.7689 46.4972 15.782 46.3101 15.8081Z" fill="white"/>
<path d="M83.4172 15.8993C82.7224 16.1212 82.0409 16.6827 81.6935 17.3355C81.2926 18.0928 81.2926 19.4899 81.6935 20.2472C82.0543 20.9392 82.7758 21.5529 83.4172 21.7226C84.1121 21.9185 85.4216 21.8924 86.0362 21.6835C86.4505 21.5268 86.6375 21.5268 87.1854 21.6965C87.6931 21.8401 88.5751 21.8663 91.1139 21.8401C94.2006 21.801 94.4144 21.7879 94.7752 21.5268C95.3498 21.109 95.5368 20.6128 95.5903 19.294C95.6437 18.2234 95.617 18.0275 95.3097 17.3747C94.1872 14.9853 90.4992 15.377 89.8712 17.9361C89.7109 18.589 89.7509 19.4377 89.9514 19.9469C90.0182 20.1427 89.9247 20.1689 89.2165 20.1689C88.1207 20.1689 87.5462 19.9208 87.3457 19.3854C87.2656 19.1504 87.1987 18.2234 87.1987 17.3486V15.7295H86.5974C86.1966 15.7295 85.9694 15.7948 85.8892 15.9384C85.7957 16.1082 85.7155 16.1212 85.5017 16.0168C85.0741 15.7817 83.9651 15.7295 83.4172 15.8993ZM85.0207 17.6097C85.3414 17.8839 85.3948 18.0275 85.4349 18.824C85.5017 19.8816 85.3147 20.1689 84.5797 20.1689C83.8715 20.1689 83.3504 19.8555 83.2034 19.3202C82.8025 17.8708 83.9918 16.748 85.0207 17.6097ZM93.2251 17.4269C93.626 17.6489 93.8799 18.2626 93.8799 19.046C93.8799 19.9077 93.6661 20.1689 92.9713 20.1689C92.2631 20.1689 91.8488 19.9077 91.635 19.3593C91.154 18.1189 92.1695 16.8785 93.2251 17.4269Z" fill="white"/>
<path d="M186.213 18.6281C186.213 21.8532 186.16 22.3232 185.812 22.7802C185.612 23.0414 185.438 23.0936 184.944 23.1067C184.369 23.1067 184.303 23.1458 184.142 23.5114C183.768 24.3993 183.768 24.4385 184.222 24.5951C184.463 24.6735 184.917 24.7388 185.238 24.7388C186.628 24.7388 187.496 23.9162 187.87 22.2188C187.95 21.8663 187.964 21.8663 189.126 21.8663C189.768 21.8663 190.65 21.7749 191.091 21.6704C191.799 21.4876 191.892 21.4876 191.986 21.6704C192.146 21.9315 193.496 21.9315 194.498 21.6835C195.139 21.5137 195.246 21.5137 195.38 21.6835C195.58 21.9315 197.05 21.9315 197.932 21.6704C199.268 21.2787 199.576 20.4953 199.576 17.5575V15.7295H198.707H197.839V17.3616C197.839 19.6205 197.558 20.1689 196.422 20.1689H196.088L196.182 18.3409L196.275 16.5129H195.313H194.364V17.9361C194.364 19.2418 194.338 19.3985 194.057 19.7119C193.857 19.9469 193.576 20.0775 193.215 20.1297L192.667 20.195L192.734 18.354L192.801 16.5129H191.932H191.064L190.997 17.91C190.97 18.6934 190.863 19.4507 190.783 19.5944C190.569 19.9861 189.955 20.1689 188.872 20.1689H187.95V17.9492V15.7295H187.082H186.213V18.6281Z" fill="white"/>
<path d="M84.6598 30.8625C83.9783 31.0714 83.2434 31.5284 82.7089 32.0768C80.2369 34.5837 81.346 38.7358 84.7266 39.689C86.7042 40.2635 88.9224 39.2189 89.8577 37.2735C90.1651 36.6467 90.2052 36.3856 90.2052 35.2496C90.2052 34.1398 90.1517 33.8526 89.8711 33.2911C89.3901 32.3249 88.3478 31.3587 87.4258 31.0323C86.6374 30.745 85.3413 30.6667 84.6598 30.8625ZM87.1452 32.7819C88.4413 33.6045 88.8823 35.1713 88.2142 36.5553C87.8534 37.3126 87.4525 37.7043 86.771 37.9916C85.809 38.3702 85.0206 38.2266 84.1921 37.5085C83.0029 36.5031 82.8425 34.6751 83.818 33.3825C84.5529 32.4163 86.1163 32.1291 87.1452 32.7819Z" fill="white"/>
<path d="M103.233 35.1844V39.6237H104.035H104.837V35.1844V30.7451H104.035H103.233V35.1844Z" fill="white"/>
<path d="M113.122 35.1844V39.6237H113.99H114.859V37.6652C114.859 35.7458 114.872 35.6806 115.193 35.3802C115.54 35.0277 116.035 34.9624 116.489 35.1975C116.97 35.4586 117.13 36.0984 117.13 37.9263V39.6237H118.012H118.894L118.841 37.626C118.787 35.9417 118.747 35.563 118.507 35.1191C117.919 34.0223 117.077 33.5653 115.767 33.6437L114.859 33.6959V32.2205V30.7451H113.99H113.122V35.1844Z" fill="white"/>
<path d="M143.454 35.1844V39.6237H144.323H145.191V37.6652C145.191 35.7458 145.205 35.6806 145.525 35.3802C145.873 35.0277 146.367 34.9624 146.821 35.1975C147.302 35.4586 147.463 36.0984 147.463 37.9263V39.6237H148.265H149.066V37.6652C149.066 35.5761 148.946 35.0408 148.358 34.4271C147.797 33.8265 147.115 33.5915 146.113 33.6437L145.191 33.6829V32.2074V30.7451H144.323H143.454V35.1844Z" fill="white"/>
<path d="M183.968 31.0188C183.06 31.3714 182.031 32.3637 181.563 33.3168C181.242 33.9827 181.202 34.2308 181.202 35.3145C181.216 36.3983 181.256 36.6464 181.577 37.2861C182.004 38.1609 183.033 39.1402 183.915 39.5319C184.864 39.9497 186.32 39.9236 187.282 39.4797C188.137 39.088 188.846 38.5135 189.193 37.952L189.42 37.5603L188.685 37.1425L187.95 36.7377L187.536 37.2078C187.296 37.4689 186.868 37.7954 186.574 37.952C185.465 38.5004 184.035 37.9912 183.327 36.803C182.485 35.3929 183.06 33.3691 184.503 32.6248C184.984 32.3768 186.133 32.3898 186.694 32.6509C186.948 32.7685 187.336 33.0818 187.549 33.3299L187.95 33.8L188.685 33.4213C189.086 33.1993 189.42 32.9774 189.42 32.9251C189.42 32.6771 188.097 31.4758 187.483 31.1625C186.547 30.6924 184.971 30.6271 183.968 31.0188Z" fill="white"/>
<path d="M123.678 35.2496V39.6236H126.35H129.023V38.8402V38.0568H127.286H125.548V37.0775V36.0983H127.085H128.622V35.2496V34.4009H127.085H125.548V33.4869V32.5729H127.286H129.023V31.7242V30.8755H126.35H123.678V35.2496Z" fill="white"/>
<path d="M93.0647 33.6486C92.7707 33.7791 92.5836 33.8053 92.5569 33.7139C92.5302 33.6486 92.2763 33.5833 91.9823 33.5833H91.4612V36.5211V39.4589H92.3297H93.1983V37.6179C93.1983 35.7768 93.2785 35.3851 93.7194 35.0587C94.0668 34.7976 94.628 34.8629 95.0289 35.2023L95.4031 35.5157L95.4431 37.4873L95.4832 39.4589H96.3518H97.207V37.6179C97.207 35.7768 97.2871 35.3851 97.7281 35.0587C98.0755 34.7976 98.6367 34.8629 99.0376 35.2023L99.4118 35.5157L99.4518 37.4873L99.4919 39.4589H100.36H101.216V37.8268C101.216 36.9389 101.149 35.9205 101.069 35.5679C100.908 34.8106 100.254 33.9881 99.5587 33.6616C98.8505 33.3352 97.6479 33.3874 96.8863 33.7791L96.2582 34.1056L95.8574 33.8183C95.3363 33.4397 93.7729 33.3483 93.0647 33.6486Z" fill="white"/>
<path d="M107.71 33.8C107.496 33.8914 107.109 34.1395 106.868 34.3353L106.427 34.7009L106.922 35.1971L107.416 35.6932L107.777 35.4191C108.191 35.1318 109.206 34.9751 109.487 35.1579C109.594 35.2232 109.674 35.4843 109.688 35.7194L109.714 36.1633L108.645 36.2286C107.991 36.2678 107.403 36.3853 107.149 36.5289C105.973 37.1426 106.053 38.9444 107.269 39.5842C107.857 39.8845 109.287 39.8976 109.875 39.5842C110.142 39.4536 110.329 39.4145 110.382 39.4928C110.422 39.5711 110.703 39.6234 111.01 39.6234H111.545L111.491 37.4298C111.438 34.9621 111.278 34.4528 110.463 33.9175C110.102 33.6694 109.835 33.6172 109.06 33.6172C108.538 33.6303 107.937 33.7086 107.71 33.8ZM109.728 37.7562C109.594 38.2655 109.166 38.5788 108.592 38.5788C108.057 38.5788 107.777 38.396 107.777 38.0435C107.777 37.5996 108.151 37.4037 109.006 37.4037H109.808L109.728 37.7562Z" fill="white"/>
<path d="M138.149 33.8261C136.746 34.5181 136.091 36.1502 136.572 37.7431C137.107 39.5711 139.125 40.3806 140.915 39.4928C141.37 39.2708 142.118 38.5527 142.118 38.3438C142.118 38.2915 141.837 38.0957 141.503 37.9129L140.888 37.5734L140.514 37.952C140.007 38.4482 139.058 38.4743 138.577 38.0043C137.949 37.3906 137.976 36.0719 138.644 35.419C139.191 34.8837 139.86 34.9098 140.461 35.4974L140.902 35.9282L141.476 35.6018C141.797 35.419 142.078 35.2493 142.104 35.2362C142.225 35.1448 141.517 34.2961 141.076 33.9958C140.461 33.5911 138.817 33.4866 138.149 33.8261Z" fill="white"/>
<path d="M151.792 33.8787C151.485 34.0353 151.124 34.2834 150.963 34.4401L150.683 34.7274L151.151 35.2235L151.605 35.7066L151.992 35.4324C152.46 35.0929 153.395 34.9624 153.676 35.1843C153.783 35.2757 153.876 35.5499 153.876 35.785V36.2289H152.928C151.284 36.2289 150.536 36.7903 150.536 38.0046C150.536 38.553 150.603 38.775 150.87 39.0884C151.565 39.8718 153.075 40.0937 154.13 39.5584C154.371 39.4409 154.545 39.4148 154.545 39.4931C154.545 39.5584 154.785 39.6237 155.092 39.6237H155.64L155.587 37.2343C155.547 34.5968 155.48 34.3748 154.638 33.8787C154.037 33.5131 152.54 33.5131 151.792 33.8787ZM153.876 37.7304C153.876 38.2397 153.436 38.5791 152.754 38.5791C152.153 38.5791 152.006 38.4486 152.006 37.9393C152.006 37.5476 152.3 37.404 153.101 37.404C153.836 37.404 153.876 37.4171 153.876 37.7304Z" fill="white"/>
<path d="M158.687 33.8133C158.393 33.9439 158.206 33.97 158.179 33.8786C158.152 33.8133 157.899 33.748 157.605 33.748H157.083V36.6858V39.6236H157.952H158.821V37.7173V35.811L159.208 35.4324C159.449 35.2104 159.743 35.0537 159.956 35.0537C160.17 35.0537 160.464 35.2104 160.705 35.4324L161.092 35.811V37.7173V39.6236H161.974H162.856L162.803 37.5606C162.762 35.6674 162.736 35.4715 162.442 34.9623C161.921 34.0745 161.239 33.6958 160.103 33.6436C159.462 33.6305 159.008 33.6828 158.687 33.8133Z" fill="white"/>
<path d="M165.676 33.8915C164.139 34.6358 163.578 36.3985 164.406 37.9392C165.034 39.1274 166.584 39.7802 167.787 39.3754C168.027 39.2971 168.241 39.2579 168.268 39.284C168.295 39.3102 168.228 39.5713 168.107 39.8585C167.68 40.877 166.464 41.0467 165.582 40.198L165.235 39.8455L164.633 40.1588C164.299 40.3286 164.032 40.5114 164.032 40.5636C164.032 40.6289 164.246 40.89 164.5 41.1773C165.97 42.7572 168.495 42.5091 169.564 40.6681L169.978 39.9499L170.018 36.8424L170.072 33.7479H169.537C169.176 33.7479 168.976 33.8132 168.923 33.9438C168.856 34.1266 168.776 34.1135 168.321 33.8785C167.586 33.526 166.424 33.526 165.676 33.8915ZM167.613 35.2625C167.773 35.367 168.001 35.6281 168.107 35.837C168.856 37.2472 167.185 38.7095 166.13 37.5605C165.061 36.4115 166.357 34.4008 167.613 35.2625Z" fill="white"/>
<path d="M172.985 33.8266C171.582 34.4272 170.873 36.3074 171.448 37.9525C171.876 39.1538 172.851 39.8066 174.254 39.8197C175.029 39.8197 175.296 39.7675 175.804 39.4671C176.405 39.1277 176.953 38.5009 176.806 38.3573C176.766 38.3051 176.499 38.1484 176.232 37.9787L175.737 37.6914L175.35 38.0048C174.802 38.4487 173.773 38.4487 173.319 37.9917C173.132 37.822 172.985 37.5608 172.985 37.4042C172.985 37.1561 173.065 37.143 175.069 37.143H177.167L177.087 36.3857C176.94 34.6622 175.844 33.6177 174.227 33.6177C173.8 33.6307 173.239 33.7221 172.985 33.8266ZM175.029 35.4717L175.457 35.9026L174.829 35.9418C174.468 35.9679 173.907 35.9679 173.559 35.9418L172.918 35.9026L173.345 35.4717C173.639 35.1714 173.893 35.0539 174.187 35.0539C174.481 35.0539 174.735 35.1714 175.029 35.4717Z" fill="white"/>
<path d="M191.892 33.8391C190.717 34.4397 190.169 35.3667 190.169 36.7508C190.169 38.5265 191.144 39.6363 192.868 39.8453C194.792 40.0672 196.262 38.7224 196.262 36.7508C196.262 35.3929 195.647 34.3353 194.565 33.8652C193.883 33.5649 192.454 33.5388 191.892 33.8391ZM194.004 35.3276C194.712 35.8629 194.792 37.3514 194.137 37.9781C193.763 38.3437 192.975 38.4351 192.48 38.187C191.879 37.8606 191.625 36.5941 192.026 35.8368C192.44 35.0534 193.349 34.8184 194.004 35.3276Z" fill="white"/>
<path d="M130.038 33.9047C130.092 33.9961 130.546 34.662 131.054 35.3932L131.976 36.712L130.96 38.1614L129.945 39.6236H130.92H131.895L132.363 38.9055C132.617 38.5138 132.871 38.1875 132.911 38.1875C132.951 38.1875 133.218 38.5138 133.486 38.9055L133.967 39.6236H134.982C135.744 39.6236 135.958 39.5845 135.891 39.4539C135.837 39.3756 135.436 38.7881 135.009 38.1483C134.581 37.5216 134.194 36.9209 134.154 36.8164C134.1 36.6989 134.474 36.046 135.022 35.2626C135.543 34.5053 135.971 33.8657 135.971 33.8265C135.971 33.7873 135.557 33.748 135.049 33.748H134.14L133.592 34.5445L133.058 35.341L132.51 34.5445L131.949 33.748H130.947C130.185 33.748 129.971 33.7872 130.038 33.9047Z" fill="white"/>
<path d="M197.692 37.9131C197.451 38.0959 197.371 38.2918 197.371 38.6965C197.371 39.3886 197.745 39.7803 198.44 39.7933C199.389 39.8194 199.896 38.7618 199.295 38.0045C198.961 37.5867 198.173 37.5345 197.692 37.9131Z" fill="white"/>
<path d="M6.958 38.9184C4.68641 40.0674 4.75322 43.1749 7.05154 44.115C7.78647 44.4284 10.1249 44.4023 10.8464 44.0759C11.5947 43.7364 12.3163 42.8746 12.49 42.1043C12.7572 40.8639 12.1159 39.519 10.9934 38.9837C10.5124 38.7486 10.165 38.7095 8.88217 38.7095C7.75974 38.7095 7.25197 38.7617 6.958 38.9184ZM10.9801 40.3024C11.3676 40.7202 11.4344 40.89 11.4344 41.4122C11.4344 42.1957 11.0469 42.8354 10.4322 43.0966C9.79081 43.3577 7.93345 43.3447 7.34551 43.0705C6.11618 42.496 6.02264 40.7202 7.19852 40.0021C7.57267 39.7801 7.81319 39.754 9.06925 39.7801L10.5257 39.8193L10.9801 40.3024Z" fill="white"/>
<path d="M16.2448 38.9968C15.9909 39.1665 15.6435 39.506 15.4698 39.7541C15.1892 40.1719 15.1758 40.2894 15.2025 42.2218L15.2426 44.2587L15.5633 44.2979C16.1379 44.3762 16.2448 44.0498 16.2448 42.1435C16.2448 40.4591 16.2582 40.3808 16.5789 40.0805C16.8461 39.8063 17.0198 39.7541 17.7547 39.7541C18.9306 39.7541 19.2112 40.0413 19.3048 41.3601C19.3849 42.2218 19.4117 42.3002 19.6923 42.3393C20.2268 42.4177 20.3871 42.1565 20.3871 41.2295C20.3871 40.5114 20.4406 40.3547 20.7212 40.0805C20.9884 39.8063 21.1621 39.7541 21.8971 39.7541C22.632 39.7541 22.7923 39.7932 23.0729 40.0935C23.3669 40.4069 23.3936 40.5505 23.4604 42.261C23.5139 43.8278 23.5673 44.1281 23.7678 44.2456C23.9281 44.3501 24.0618 44.3501 24.2355 44.2456C24.4359 44.1151 24.4626 43.8539 24.5027 42.2871C24.5294 40.6158 24.5161 40.42 24.2355 39.8846C23.7544 38.9707 23.2467 38.7095 21.9238 38.7095C20.9751 38.7095 20.7613 38.7487 20.3337 39.0359L19.8393 39.3624L19.4117 39.0751C19.0643 38.827 18.7703 38.7617 17.8483 38.7356C16.8327 38.6965 16.659 38.7226 16.2448 38.9968Z" fill="white"/>
<path d="M27.4958 38.8664C27.3889 38.9709 27.3354 39.6368 27.3354 41.1644C27.3354 43.5016 27.4423 43.9064 28.1238 44.1936C28.351 44.2719 29.4868 44.3111 31.1972 44.2981C33.6157 44.2589 33.9364 44.2328 34.0701 44.0239C34.1769 43.8672 34.1769 43.7366 34.0701 43.5669C33.9364 43.371 33.6291 43.3449 31.2372 43.3057C28.5781 43.2796 28.5381 43.2666 28.4712 42.9793C28.4312 42.8226 28.3911 41.8042 28.3643 40.7335L28.3376 38.775L28.0036 38.7358C27.8165 38.7097 27.5893 38.775 27.4958 38.8664Z" fill="white"/>
<path d="M37.9585 38.8923C37.4107 39.1273 36.7292 39.8977 36.5689 40.4983C36.4887 40.7725 36.4219 41.6473 36.4219 42.4438C36.4219 44.0367 36.5421 44.3762 37.1034 44.2979C37.4107 44.2587 37.424 44.2065 37.4909 43.1489L37.5577 42.039L40.1232 41.9998L42.6888 41.9737L42.7289 43.0313C42.7556 43.88 42.8224 44.1281 42.9961 44.2456C43.1698 44.3501 43.3035 44.3501 43.4638 44.2456C43.6642 44.1151 43.7043 43.8539 43.7444 42.3654C43.7845 40.2633 43.5841 39.7018 42.5953 39.0882C41.994 38.7226 41.9405 38.7095 40.1767 38.7095C38.9741 38.7226 38.2258 38.7748 37.9585 38.8923ZM42.1409 40.0805C42.3547 40.2633 42.5685 40.5244 42.6086 40.668C42.6754 40.9292 42.622 40.9292 40.15 40.9292C37.4641 40.9292 37.384 40.9031 37.865 40.3286C38.2659 39.8455 38.5866 39.7671 40.19 39.7541C41.6599 39.7541 41.7668 39.7671 42.1409 40.0805Z" fill="white"/>
<path d="M46.7377 38.8662C46.6175 38.9837 46.5774 39.7018 46.5774 41.5298C46.5774 44.2456 46.6308 44.4415 47.299 44.2717C47.6197 44.1934 47.633 44.1412 47.6731 43.1097L47.7132 42.039L50.2788 41.9998L52.8443 41.9737L52.8844 43.0313C52.9111 43.88 52.9779 44.1281 53.165 44.2456C53.3254 44.3501 53.459 44.3501 53.6327 44.2456C53.8331 44.1151 53.8598 43.8148 53.8999 41.6995C53.94 38.8401 53.9267 38.7095 53.4055 38.7095C52.9245 38.7095 52.8577 38.8793 52.8577 40.0283V40.9292H50.252H47.6597L47.6197 39.8455C47.5796 38.814 47.5662 38.7748 47.2455 38.7356C47.0584 38.7095 46.8313 38.7748 46.7377 38.8662Z" fill="white"/>
<path d="M44.4786 24.7393C44.4786 30.6704 39.6704 35.4786 33.7393 35.4786C27.8081 35.4786 23 30.6704 23 24.7393C23 18.8081 27.8081 14 33.7393 14C39.6704 14 44.4786 18.8081 44.4786 24.7393ZM27.0107 24.7393C27.0107 28.4554 30.0232 31.4679 33.7393 31.4679C37.4554 31.4679 40.4679 28.4554 40.4679 24.7393C40.4679 21.0232 37.4554 18.0107 33.7393 18.0107C30.0232 18.0107 27.0107 21.0232 27.0107 24.7393Z" fill="#09ADE0"/>
</svg>
