<svg width="200" height="48" viewBox="0 0 200 48" fill="none" xmlns="http://www.w3.org/2000/svg">
<path d="M7.66625 3.05136C7.03822 3.24721 6.53045 3.69115 6.23648 4.27871C5.39466 5.9761 6.51709 7.76489 8.41454 7.76489C9.48352 7.76489 10.165 7.36013 10.646 6.43309C11.4077 4.97072 10.3654 3.14276 8.68178 2.99913C8.321 2.97302 7.86668 2.99913 7.66625 3.05136Z" fill="#2C1969"/>
<path d="M14.2136 3.05136C12.8106 3.49529 12.089 5.16657 12.7571 6.43309C13.2516 7.36013 13.9197 7.76489 15.0154 7.76489C15.8038 7.76489 16.4451 7.45153 16.9529 6.8248C17.7814 5.80636 17.5008 4.09591 16.3783 3.37778C15.8305 3.02524 14.8016 2.86856 14.2136 3.05136Z" fill="#2C1969"/>
<path d="M25.5184 3.35168C25.3046 3.50837 24.4227 4.33095 23.5675 5.16659C22.2045 6.47228 21.9907 6.73342 21.9907 7.09901C21.9907 7.67351 22.4985 8.15662 23.1265 8.15662H23.5942V15.364V22.5845L24.0485 21.5791C24.8636 19.7381 26.3201 18.0929 27.9503 17.1398L28.6719 16.7089V12.4393V8.15662H29.1262C29.8611 8.15662 30.3422 7.6474 30.2887 6.92927C30.2754 6.64202 27.1887 3.52142 26.6408 3.24723C26.1464 2.99915 25.9727 3.01221 25.5184 3.35168Z" fill="#2C1969"/>
<path d="M69.0126 3.70411L68.6919 3.95219L68.6518 24.2426C68.6251 38.7488 68.6652 44.6244 68.7721 44.8725C69.0527 45.5514 70.135 45.6298 70.4825 44.99C70.5894 44.8072 70.6294 38.4746 70.6294 24.3732V4.01748L70.3221 3.74328C69.9346 3.39075 69.4268 3.37769 69.0126 3.70411Z" fill="#2C1969"/>
<path d="M10.6328 9.12265C8.7487 9.51435 7.66636 10.0236 6.20986 11.1987C2.8292 13.9276 0.74468 18.8761 1.26581 22.976C1.77358 27.0236 3.8581 30.4315 7.19867 32.6773C12.4367 36.2026 19.4786 35.7195 24.1822 31.5283L25.1476 30.6875L24.7467 30.1489C23.8915 28.6996 23.0731 26.2141 23.2468 24.804L23.327 24.1511L23.0196 24.804C21.6433 27.8332 19.1446 29.6872 15.9109 30.092C12.3565 30.5359 8.73534 28.6296 7.17195 25.496C6.45039 24.0728 6.22323 23.1196 6.22323 21.605C6.22323 20.0904 6.45039 19.1373 7.17195 17.7141C8.41464 15.2333 11.8888 12.883 12.8108 13.8754C12.9979 14.0712 13.038 14.4237 13.038 15.8339V17.5574H12.5035C11.8354 17.5574 11.4345 17.9099 11.4345 18.5105C11.4345 18.8892 11.6483 19.1503 13.2785 20.7302C14.9221 22.3101 15.176 22.519 15.5768 22.519C15.9777 22.519 16.2316 22.3101 17.8752 20.7302C19.5054 19.1503 19.7192 18.8892 19.7192 18.5105C19.7192 17.9099 19.3183 17.5574 18.6502 17.5574H18.1157V15.625C18.1157 14.5543 18.0489 13.34 17.9687 12.9222C17.7014 11.499 16.8463 10.2978 15.7372 9.73632C14.3876 9.07042 12.1962 8.79623 10.6328 9.12265Z" fill="#2C1969"/>
<path d="M195.032 11.5252C194.511 11.6819 194.311 12.5306 194.712 12.9092C194.992 13.1965 195.607 13.1704 195.874 12.8831C196.115 12.635 196.168 12.1128 195.995 11.8516C195.861 11.6427 195.286 11.4469 195.032 11.5252Z" fill="#2C1969"/>
<path d="M179.826 13.9799C178.49 14.9722 177.394 15.8339 177.394 15.9123C177.394 15.9906 177.595 16.2779 177.835 16.5521L178.263 17.0482L179.532 17.0743C180.975 17.1004 181.55 17.3355 181.978 18.0536C182.312 18.602 182.365 19.8555 182.071 20.0382C181.951 20.1166 179.866 20.1558 176.699 20.1427L171.528 20.1035L171.221 19.8032C170.94 19.529 170.914 19.3854 170.873 17.6227L170.833 15.7295H170.245C169.845 15.7295 169.617 15.7948 169.537 15.9384C169.444 16.0951 169.35 16.1212 169.163 16.0167C168.629 15.7425 167.8 15.7034 167.065 15.9123C165.569 16.3432 164.727 17.8577 165.074 19.4899C165.408 21.0436 166.517 21.8662 168.228 21.8662C168.749 21.8532 169.417 21.7748 169.698 21.6704C170.112 21.5267 170.286 21.5267 170.499 21.6442C170.7 21.7618 172.37 21.8009 176.726 21.8009C182.165 21.8009 182.712 21.7748 183.1 21.5659C183.781 21.2134 183.995 20.678 183.995 19.3854C183.995 18.1058 183.741 17.3877 182.953 16.5521C182.525 16.082 182.231 15.9123 181.149 15.5075C180.842 15.39 180.868 15.3508 181.951 14.5544C182.565 14.0974 183.127 13.6795 183.193 13.6273C183.287 13.549 182.94 13.0006 182.338 12.2955C182.285 12.2433 181.162 13.0006 179.826 13.9799ZM168.642 17.6097C169.016 17.9753 169.176 18.6542 169.07 19.4115C168.989 20.0252 168.816 20.1688 168.174 20.1688C167.493 20.1688 167.079 19.9077 166.865 19.3593C166.491 18.3931 167.038 17.2963 167.907 17.2963C168.161 17.2963 168.442 17.4138 168.642 17.6097Z" fill="#2C1969"/>
<path d="M97.8887 17.2963V21.8662H98.7572H99.6258V17.2963V12.7264H98.7572H97.8887V17.2963Z" fill="#2C1969"/>
<path d="M119.268 15.8861C119.268 18.6411 119.241 19.1242 119.028 19.5159C118.894 19.777 118.667 19.999 118.466 20.0512C117.932 20.1949 114.858 20.1818 114.578 20.0382C114.364 19.9207 114.324 19.7509 114.324 19.0459C114.324 17.7924 114.097 17.0743 113.509 16.4998C112.533 15.5466 110.756 15.5205 109.22 16.4475C108.805 16.6956 108.431 16.9045 108.391 16.9045C108.351 16.9045 108.311 16.6434 108.311 16.317V15.7294H107.442H106.574V17.9491V20.1687H105.304H104.035V17.9491V15.7294H103.166H102.311L102.271 19.1373L102.231 22.5451L101.844 22.8715C101.536 23.1327 101.376 23.1718 100.975 23.1065C100.494 23.0282 100.494 23.0282 100.213 23.7463L99.9194 24.4645L100.334 24.595C101.216 24.8953 102.498 24.6734 103.14 24.1119C103.501 23.7986 103.875 23.0282 103.982 22.4015L104.075 21.8661H108.03C111.424 21.8531 112.079 21.827 112.654 21.6311C113.255 21.4222 113.362 21.4222 113.723 21.605C114.017 21.7486 114.698 21.8139 116.395 21.84C118.359 21.8792 118.787 21.8531 119.428 21.6442C120.11 21.4092 120.217 21.4092 120.564 21.5919C120.805 21.7095 121.459 21.8009 122.355 21.84C124.787 21.9445 125.762 21.4744 126.069 20.0382C126.15 19.6595 126.216 17.9491 126.216 16.0558V12.7263H125.361H124.493L124.453 16.1211C124.413 19.4506 124.413 19.5159 124.105 19.8032C123.838 20.0643 123.664 20.1035 122.742 20.1035C121.82 20.1035 121.647 20.0643 121.379 19.8032C121.072 19.5159 121.072 19.4506 121.032 16.1211L120.992 12.7263H120.137H119.268V15.8861ZM112.32 17.7663C112.574 18.0144 112.6 19.6856 112.346 19.9337C112.226 20.0512 111.598 20.1165 110.248 20.1426L108.311 20.1949V19.7509C108.311 19.3723 108.418 19.2156 108.952 18.7847C109.901 18.0013 110.342 17.7271 110.85 17.5835C111.398 17.4268 112.039 17.5051 112.32 17.7663Z" fill="#2C1969"/>
<path d="M139.82 16.0168C139.793 18.3279 139.726 19.4116 139.619 19.6075C139.245 20.2342 137.321 20.3648 136.733 19.7903C136.466 19.5291 136.439 19.3463 136.372 17.6489L136.305 15.7949L135.717 15.7557C135.303 15.7296 135.089 15.7687 135.009 15.8993C134.916 16.0691 134.822 16.0691 134.274 15.9124C133.259 15.599 131.896 15.9254 131.268 16.6044C130.813 17.0875 130.493 18.0015 130.493 18.7979C130.493 20.195 131.254 21.3179 132.484 21.7227C133.085 21.9185 134.448 21.8924 135.063 21.6835C135.477 21.5399 135.677 21.5399 136.265 21.6966C137.147 21.9316 139.566 21.8663 140.247 21.5791C140.661 21.4093 140.755 21.4224 141.116 21.5921C141.704 21.8924 146.487 21.9708 147.302 21.6966C147.837 21.5138 147.93 21.5138 148.438 21.7488C149.2 22.0752 150.576 22.0883 151.244 21.7488C151.685 21.5268 151.792 21.5268 152.233 21.6835C152.607 21.8141 153.716 21.8533 156.589 21.8663H160.424V21.0176V20.1689H159.021C157.645 20.1689 157.618 20.1689 157.391 19.8164C157.231 19.5683 157.15 19.2027 157.15 18.6413C157.15 17.9231 157.191 17.7795 157.525 17.4661C157.859 17.1267 157.979 17.1005 158.888 17.1136H159.876L160.09 16.526C160.197 16.2127 160.291 15.8732 160.291 15.7818C160.291 15.5207 159.248 15.2987 158.353 15.377C157.03 15.4684 156.001 16.1474 155.56 17.1919C155.32 17.7273 155.28 19.0983 155.467 19.7511L155.6 20.1689H154.344C153.489 20.1689 153.062 20.1167 152.981 19.9992C152.928 19.9208 152.901 19.4508 152.928 18.9807C152.968 17.897 152.607 16.983 151.859 16.3302C150.443 15.0767 148.051 15.4946 147.169 17.1528C146.862 17.7273 146.795 18.0145 146.795 18.7979C146.795 20.2081 146.808 20.195 144.296 20.1428L142.225 20.1036L141.904 19.738L141.583 19.3724V16.0429V12.7265H140.728H139.873L139.82 16.0168ZM150.656 17.44C151.512 18.2234 151.365 19.8817 150.389 20.3648C149.494 20.8218 148.665 20.2211 148.559 19.0591C148.492 18.2496 148.692 17.6489 149.12 17.3617C149.521 17.0744 150.296 17.1136 150.656 17.44ZM133.873 17.44C134.06 17.5184 134.274 17.7273 134.354 17.9101C134.555 18.3279 134.541 19.8164 134.341 20.0122C134.247 20.1036 133.913 20.1689 133.593 20.1689C133.125 20.1689 132.938 20.0906 132.604 19.7772C132.23 19.3986 132.203 19.3202 132.257 18.6413C132.31 18.0406 132.39 17.8448 132.684 17.5967C133.085 17.2703 133.392 17.2181 133.873 17.44Z" fill="#2C1969"/>
<path d="M82.9495 13.327C82.5754 13.5751 82.5486 14.2932 82.8961 14.5936C83.4573 15.0897 84.259 14.698 84.259 13.9277C84.259 13.5098 83.8715 13.1181 83.4573 13.1181C83.337 13.1181 83.1099 13.2095 82.9495 13.327Z" fill="#2C1969"/>
<path d="M84.9271 13.3792C84.4059 13.8884 84.7801 14.8154 85.5016 14.8154C85.8758 14.8154 86.0495 14.6979 86.2499 14.3323C86.4637 13.9276 86.437 13.797 86.0629 13.4445C85.6754 13.0528 85.2878 13.0266 84.9271 13.3792Z" fill="#2C1969"/>
<path d="M92.1427 13.3792C91.5949 13.9145 91.969 14.8154 92.7574 14.8154C93.4389 14.8154 93.7729 13.797 93.2117 13.3531C92.8242 13.0528 92.4768 13.0528 92.1427 13.3792Z" fill="#2C1969"/>
<path d="M131.962 13.3792C131.441 13.8884 131.815 14.8154 132.537 14.8154C132.911 14.8154 133.085 14.6979 133.285 14.3323C133.499 13.9276 133.472 13.797 133.098 13.4445C132.711 13.0528 132.323 13.0266 131.962 13.3792Z" fill="#2C1969"/>
<path d="M134.034 13.4445C133.846 13.6142 133.699 13.8362 133.699 13.9406C133.699 14.2801 134.247 14.8154 134.581 14.8154C134.996 14.8154 135.437 14.3846 135.437 13.9667C135.437 13.575 135.009 13.118 134.635 13.118C134.474 13.118 134.207 13.2617 134.034 13.4445Z" fill="#2C1969"/>
<path d="M166.504 13.4445C166.317 13.6142 166.17 13.8362 166.17 13.9406C166.17 14.2801 166.718 14.8154 167.052 14.8154C167.466 14.8154 167.907 14.3846 167.907 13.9667C167.907 13.575 167.479 13.118 167.105 13.118C166.945 13.118 166.678 13.2617 166.504 13.4445Z" fill="#2C1969"/>
<path d="M168.575 13.3792C168.027 13.9145 168.388 14.8154 169.136 14.8154C169.871 14.8154 170.219 13.7317 169.617 13.3269C169.216 13.0528 168.896 13.0658 168.575 13.3792Z" fill="#2C1969"/>
<path d="M193.696 13.3792C193.175 13.8884 193.549 14.8154 194.284 14.8154C194.712 14.8154 195.206 14.2279 195.086 13.8492C194.979 13.4967 194.538 13.118 194.217 13.118C194.084 13.118 193.843 13.2355 193.696 13.3792Z" fill="#2C1969"/>
<path d="M195.767 13.4446C195.58 13.6144 195.433 13.8233 195.433 13.9016C195.433 14.1105 195.714 14.5936 195.888 14.7112C196.369 15.0376 197.17 14.5675 197.17 13.9669C197.17 13.5752 196.743 13.1182 196.369 13.1182C196.208 13.1182 195.941 13.2618 195.767 13.4446Z" fill="#2C1969"/>
<path d="M46.3101 15.8079C43.3036 16.3824 40.5777 18.3017 39.2414 20.8087C38.3462 22.506 38.0923 23.5114 38.0923 25.3916C38.0923 27.2849 38.3462 28.2902 39.2682 30.0268C40.2169 31.8156 42.1945 33.5261 44.3058 34.3617C45.8157 34.9493 46.8179 35.0537 51.0938 35.0537C54.8486 35.0537 55.0758 35.0407 55.637 34.7795C57.1603 34.0483 57.4543 31.9462 56.1715 30.7841C55.6103 30.2618 55.2361 30.2227 51.6149 30.2227C47.6597 30.2227 46.858 30.1313 45.6821 29.5698C44.0118 28.7603 43.1031 27.2979 43.1031 25.3916C43.1031 24.0076 43.4639 23.0805 44.3458 22.1666C46.2166 20.2341 49.2765 20.0644 51.2408 21.801C52.1762 22.6236 53.1783 22.8455 54.1538 22.4538C54.8219 22.1796 55.1159 21.9054 55.4098 21.2787C56.1581 19.6988 55.2228 18.2626 52.5904 16.9177C50.9067 16.0559 50.0515 15.834 48.2476 15.7948C47.3657 15.7687 46.4972 15.7818 46.3101 15.8079Z" fill="#2C1969"/>
<path d="M83.4172 15.8992C82.7224 16.1211 82.0409 16.6826 81.6935 17.3354C81.2926 18.0927 81.2926 19.4898 81.6935 20.2471C82.0543 20.9391 82.7758 21.5528 83.4172 21.7225C84.1121 21.9184 85.4216 21.8923 86.0362 21.6834C86.4505 21.5267 86.6375 21.5267 87.1854 21.6964C87.6931 21.84 88.5751 21.8662 91.1139 21.84C94.2006 21.8009 94.4144 21.7878 94.7752 21.5267C95.3498 21.1089 95.5368 20.6127 95.5903 19.2939C95.6437 18.2233 95.617 18.0274 95.3097 17.3746C94.1872 14.9852 90.4992 15.3769 89.8712 17.936C89.7109 18.5889 89.7509 19.4376 89.9514 19.9468C90.0182 20.1426 89.9247 20.1688 89.2165 20.1688C88.1207 20.1688 87.5462 19.9207 87.3457 19.3853C87.2656 19.1503 87.1987 18.2233 87.1987 17.3485V15.7294H86.5974C86.1966 15.7294 85.9694 15.7947 85.8892 15.9383C85.7957 16.1081 85.7155 16.1211 85.5017 16.0167C85.0741 15.7816 83.9651 15.7294 83.4172 15.8992ZM85.0207 17.6096C85.3414 17.8838 85.3948 18.0274 85.4349 18.8239C85.5017 19.8815 85.3147 20.1688 84.5797 20.1688C83.8715 20.1688 83.3504 19.8554 83.2034 19.3201C82.8025 17.8707 83.9918 16.7479 85.0207 17.6096ZM93.2251 17.4268C93.626 17.6488 93.8799 18.2625 93.8799 19.0459C93.8799 19.9076 93.6661 20.1688 92.9713 20.1688C92.2631 20.1688 91.8488 19.9076 91.635 19.3592C91.154 18.1188 92.1695 16.8784 93.2251 17.4268Z" fill="#2C1969"/>
<path d="M186.213 18.6281C186.213 21.8532 186.16 22.3232 185.812 22.7802C185.612 23.0414 185.438 23.0936 184.944 23.1067C184.369 23.1067 184.303 23.1458 184.142 23.5114C183.768 24.3993 183.768 24.4385 184.222 24.5951C184.463 24.6735 184.917 24.7388 185.238 24.7388C186.628 24.7388 187.496 23.9162 187.87 22.2188C187.95 21.8663 187.964 21.8663 189.126 21.8663C189.768 21.8663 190.65 21.7749 191.091 21.6704C191.799 21.4876 191.892 21.4876 191.986 21.6704C192.146 21.9315 193.496 21.9315 194.498 21.6835C195.139 21.5137 195.246 21.5137 195.38 21.6835C195.58 21.9315 197.05 21.9315 197.932 21.6704C199.268 21.2787 199.576 20.4953 199.576 17.5575V15.7295H198.707H197.839V17.3616C197.839 19.6205 197.558 20.1689 196.422 20.1689H196.088L196.182 18.3409L196.275 16.5129H195.313H194.364V17.9361C194.364 19.2418 194.338 19.3985 194.057 19.7119C193.857 19.9469 193.576 20.0775 193.215 20.1297L192.667 20.195L192.734 18.354L192.801 16.5129H191.932H191.064L190.997 17.91C190.97 18.6934 190.863 19.4507 190.783 19.5944C190.569 19.9861 189.955 20.1689 188.872 20.1689H187.95V17.9492V15.7295H187.082H186.213V18.6281Z" fill="#2C1969"/>
<path d="M84.6598 30.8623C83.9783 31.0712 83.2434 31.5282 82.7089 32.0766C80.2369 34.5835 81.346 38.7356 84.7266 39.6888C86.7042 40.2633 88.9224 39.2187 89.8577 37.2733C90.1651 36.6465 90.2052 36.3854 90.2052 35.2494C90.2052 34.1396 90.1517 33.8524 89.8711 33.2909C89.3901 32.3247 88.3478 31.3585 87.4258 31.0321C86.6374 30.7448 85.3413 30.6665 84.6598 30.8623ZM87.1452 32.7817C88.4413 33.6043 88.8823 35.1711 88.2142 36.5551C87.8534 37.3124 87.4525 37.7041 86.771 37.9914C85.809 38.37 85.0206 38.2264 84.1921 37.5083C83.0029 36.5029 82.8425 34.6749 83.818 33.3823C84.5529 32.4161 86.1163 32.1289 87.1452 32.7817Z" fill="#2C1969"/>
<path d="M103.233 35.1842V39.6235H104.035H104.837V35.1842V30.7449H104.035H103.233V35.1842Z" fill="#2C1969"/>
<path d="M113.122 35.1842V39.6235H113.99H114.859V37.665C114.859 35.7456 114.872 35.6804 115.193 35.38C115.54 35.0275 116.035 34.9622 116.489 35.1973C116.97 35.4584 117.13 36.0982 117.13 37.9261V39.6235H118.012H118.894L118.841 37.6258C118.787 35.9415 118.747 35.5628 118.507 35.1189C117.919 34.0221 117.077 33.5651 115.767 33.6435L114.859 33.6957V32.2203V30.7449H113.99H113.122V35.1842Z" fill="#2C1969"/>
<path d="M143.454 35.1842V39.6235H144.323H145.191V37.665C145.191 35.7456 145.205 35.6804 145.525 35.38C145.873 35.0275 146.367 34.9622 146.821 35.1973C147.302 35.4584 147.463 36.0982 147.463 37.9261V39.6235H148.265H149.066V37.665C149.066 35.5759 148.946 35.0406 148.358 34.4269C147.797 33.8263 147.115 33.5913 146.113 33.6435L145.191 33.6827V32.2072V30.7449H144.323H143.454V35.1842Z" fill="#2C1969"/>
<path d="M183.968 31.019C183.06 31.3716 182.031 32.3639 181.563 33.317C181.242 33.9829 181.202 34.231 181.202 35.3147C181.216 36.3985 181.256 36.6466 181.577 37.2863C182.004 38.1611 183.033 39.1404 183.915 39.5321C184.864 39.9499 186.32 39.9238 187.282 39.4799C188.137 39.0882 188.846 38.5137 189.193 37.9522L189.42 37.5605L188.685 37.1427L187.95 36.7379L187.536 37.208C187.296 37.4691 186.868 37.7956 186.574 37.9522C185.465 38.5006 184.035 37.9914 183.327 36.8032C182.485 35.3931 183.06 33.3693 184.503 32.625C184.984 32.377 186.133 32.39 186.694 32.6511C186.948 32.7687 187.336 33.082 187.549 33.3301L187.95 33.8002L188.685 33.4215C189.086 33.1995 189.42 32.9776 189.42 32.9253C189.42 32.6773 188.097 31.476 187.483 31.1627C186.547 30.6926 184.971 30.6273 183.968 31.019Z" fill="#2C1969"/>
<path d="M123.678 35.2495V39.6235H126.35H129.023V38.8401V38.0567H127.286H125.548V37.0774V36.0982H127.085H128.622V35.2495V34.4008H127.085H125.548V33.4868V32.5728H127.286H129.023V31.7241V30.8754H126.35H123.678V35.2495Z" fill="#2C1969"/>
<path d="M93.0647 33.6487C92.7707 33.7792 92.5836 33.8054 92.5569 33.714C92.5302 33.6487 92.2763 33.5834 91.9823 33.5834H91.4612V36.5212V39.459H92.3297H93.1983V37.618C93.1983 35.7769 93.2785 35.3852 93.7194 35.0588C94.0668 34.7977 94.628 34.863 95.0289 35.2024L95.4031 35.5158L95.4431 37.4874L95.4832 39.459H96.3518H97.207V37.618C97.207 35.7769 97.2871 35.3852 97.7281 35.0588C98.0755 34.7977 98.6367 34.863 99.0376 35.2024L99.4118 35.5158L99.4518 37.4874L99.4919 39.459H100.36H101.216V37.8269C101.216 36.939 101.149 35.9206 101.069 35.568C100.908 34.8107 100.254 33.9882 99.5587 33.6617C98.8505 33.3353 97.6479 33.3875 96.8863 33.7792L96.2582 34.1057L95.8574 33.8184C95.3363 33.4398 93.7729 33.3484 93.0647 33.6487Z" fill="#2C1969"/>
<path d="M107.71 33.8001C107.496 33.8915 107.109 34.1396 106.868 34.3354L106.427 34.701L106.922 35.1972L107.416 35.6933L107.777 35.4192C108.191 35.1319 109.206 34.9752 109.487 35.158C109.594 35.2233 109.674 35.4844 109.688 35.7195L109.714 36.1634L108.645 36.2287C107.991 36.2679 107.403 36.3854 107.149 36.529C105.973 37.1427 106.053 38.9445 107.269 39.5843C107.857 39.8846 109.287 39.8977 109.875 39.5843C110.142 39.4537 110.329 39.4146 110.382 39.4929C110.422 39.5712 110.703 39.6235 111.01 39.6235H111.545L111.491 37.4299C111.438 34.9622 111.278 34.4529 110.463 33.9176C110.102 33.6695 109.835 33.6173 109.06 33.6173C108.538 33.6304 107.937 33.7087 107.71 33.8001ZM109.728 37.7563C109.594 38.2656 109.166 38.5789 108.592 38.5789C108.057 38.5789 107.777 38.3961 107.777 38.0436C107.777 37.5997 108.151 37.4038 109.006 37.4038H109.808L109.728 37.7563Z" fill="#2C1969"/>
<path d="M138.149 33.8263C136.746 34.5183 136.091 36.1504 136.572 37.7433C137.107 39.5713 139.125 40.3808 140.915 39.493C141.37 39.271 142.118 38.5529 142.118 38.344C142.118 38.2917 141.837 38.0959 141.503 37.9131L140.888 37.5736L140.514 37.9522C140.007 38.4484 139.058 38.4745 138.577 38.0045C137.949 37.3908 137.976 36.0721 138.644 35.4192C139.191 34.8839 139.86 34.91 140.461 35.4976L140.902 35.9284L141.476 35.602C141.797 35.4192 142.078 35.2495 142.104 35.2364C142.225 35.145 141.517 34.2963 141.076 33.996C140.461 33.5913 138.817 33.4868 138.149 33.8263Z" fill="#2C1969"/>
<path d="M151.792 33.8785C151.485 34.0351 151.124 34.2832 150.963 34.4399L150.683 34.7272L151.151 35.2233L151.605 35.7064L151.992 35.4322C152.46 35.0927 153.395 34.9622 153.676 35.1841C153.783 35.2755 153.876 35.5497 153.876 35.7848V36.2287H152.928C151.284 36.2287 150.536 36.7901 150.536 38.0044C150.536 38.5528 150.603 38.7748 150.87 39.0882C151.565 39.8716 153.075 40.0935 154.13 39.5582C154.371 39.4407 154.545 39.4146 154.545 39.4929C154.545 39.5582 154.785 39.6235 155.092 39.6235H155.64L155.587 37.2341C155.547 34.5966 155.48 34.3746 154.638 33.8785C154.037 33.5129 152.54 33.5129 151.792 33.8785ZM153.876 37.7302C153.876 38.2395 153.436 38.5789 152.754 38.5789C152.153 38.5789 152.006 38.4484 152.006 37.9391C152.006 37.5474 152.3 37.4038 153.101 37.4038C153.836 37.4038 153.876 37.4169 153.876 37.7302Z" fill="#2C1969"/>
<path d="M158.687 33.8132C158.393 33.9438 158.206 33.9699 158.179 33.8785C158.152 33.8132 157.899 33.7479 157.605 33.7479H157.083V36.6857V39.6235H157.952H158.821V37.7172V35.8109L159.208 35.4323C159.449 35.2103 159.743 35.0536 159.956 35.0536C160.17 35.0536 160.464 35.2103 160.705 35.4323L161.092 35.8109V37.7172V39.6235H161.974H162.856L162.803 37.5605C162.762 35.6673 162.736 35.4714 162.442 34.9622C161.921 34.0744 161.239 33.6957 160.103 33.6435C159.462 33.6304 159.008 33.6827 158.687 33.8132Z" fill="#2C1969"/>
<path d="M165.676 33.8915C164.139 34.6358 163.578 36.3985 164.406 37.9392C165.034 39.1274 166.584 39.7802 167.787 39.3754C168.027 39.2971 168.241 39.2579 168.268 39.284C168.295 39.3102 168.228 39.5713 168.107 39.8585C167.68 40.877 166.464 41.0467 165.582 40.198L165.235 39.8455L164.633 40.1588C164.299 40.3286 164.032 40.5114 164.032 40.5636C164.032 40.6289 164.246 40.89 164.5 41.1773C165.97 42.7572 168.495 42.5091 169.564 40.6681L169.978 39.9499L170.018 36.8424L170.072 33.7479H169.537C169.176 33.7479 168.976 33.8132 168.923 33.9438C168.856 34.1266 168.776 34.1135 168.321 33.8785C167.586 33.526 166.424 33.526 165.676 33.8915ZM167.613 35.2625C167.773 35.367 168.001 35.6281 168.107 35.837C168.856 37.2472 167.185 38.7095 166.13 37.5605C165.061 36.4115 166.357 34.4008 167.613 35.2625Z" fill="#2C1969"/>
<path d="M172.985 33.8265C171.582 34.4271 170.873 36.3073 171.448 37.9524C171.876 39.1537 172.851 39.8065 174.254 39.8196C175.029 39.8196 175.296 39.7674 175.804 39.467C176.405 39.1276 176.953 38.5008 176.806 38.3572C176.766 38.305 176.499 38.1483 176.232 37.9786L175.737 37.6913L175.35 38.0047C174.802 38.4486 173.773 38.4486 173.319 37.9916C173.132 37.8219 172.985 37.5607 172.985 37.4041C172.985 37.156 173.065 37.1429 175.069 37.1429H177.167L177.087 36.3856C176.94 34.6621 175.844 33.6176 174.227 33.6176C173.8 33.6306 173.239 33.722 172.985 33.8265ZM175.029 35.4716L175.457 35.9025L174.829 35.9417C174.468 35.9678 173.907 35.9678 173.559 35.9417L172.918 35.9025L173.345 35.4716C173.639 35.1713 173.893 35.0538 174.187 35.0538C174.481 35.0538 174.735 35.1713 175.029 35.4716Z" fill="#2C1969"/>
<path d="M191.892 33.8393C190.717 34.4399 190.169 35.3669 190.169 36.751C190.169 38.5267 191.144 39.6365 192.868 39.8455C194.792 40.0674 196.262 38.7226 196.262 36.751C196.262 35.3931 195.647 34.3355 194.565 33.8654C193.883 33.5651 192.454 33.539 191.892 33.8393ZM194.004 35.3278C194.712 35.8631 194.792 37.3516 194.137 37.9783C193.763 38.3439 192.975 38.4353 192.48 38.1872C191.879 37.8608 191.625 36.5943 192.026 35.837C192.44 35.0536 193.349 34.8186 194.004 35.3278Z" fill="#2C1969"/>
<path d="M130.038 33.9046C130.092 33.996 130.546 34.6619 131.054 35.3931L131.976 36.7119L130.96 38.1612L129.945 39.6235H130.92H131.895L132.363 38.9054C132.617 38.5137 132.871 38.1873 132.911 38.1873C132.951 38.1873 133.218 38.5137 133.486 38.9054L133.967 39.6235H134.982C135.744 39.6235 135.958 39.5844 135.891 39.4538C135.837 39.3755 135.436 38.7879 135.009 38.1481C134.581 37.5214 134.194 36.9208 134.154 36.8163C134.1 36.6988 134.474 36.0459 135.022 35.2625C135.543 34.5052 135.971 33.8655 135.971 33.8263C135.971 33.7871 135.557 33.7479 135.049 33.7479H134.14L133.592 34.5444L133.058 35.3409L132.51 34.5444L131.949 33.7479H130.947C130.185 33.7479 129.971 33.7871 130.038 33.9046Z" fill="#2C1969"/>
<path d="M197.692 37.913C197.451 38.0958 197.371 38.2917 197.371 38.6964C197.371 39.3885 197.745 39.7802 198.44 39.7932C199.389 39.8193 199.896 38.7617 199.295 38.0044C198.961 37.5866 198.173 37.5344 197.692 37.913Z" fill="#2C1969"/>
<path d="M6.958 38.9186C4.68641 40.0676 4.75322 43.1751 7.05154 44.1152C7.78647 44.4286 10.1249 44.4025 10.8464 44.0761C11.5947 43.7366 12.3163 42.8748 12.49 42.1045C12.7572 40.8641 12.1159 39.5192 10.9934 38.9839C10.5124 38.7488 10.165 38.7097 8.88217 38.7097C7.75974 38.7097 7.25197 38.7619 6.958 38.9186ZM10.9801 40.3026C11.3676 40.7204 11.4344 40.8902 11.4344 41.4124C11.4344 42.1959 11.0469 42.8356 10.4322 43.0968C9.79081 43.3579 7.93345 43.3449 7.34551 43.0707C6.11618 42.4962 6.02264 40.7204 7.19852 40.0023C7.57267 39.7803 7.81319 39.7542 9.06925 39.7803L10.5257 39.8195L10.9801 40.3026Z" fill="#2C1969"/>
<path d="M16.2448 38.9968C15.9909 39.1665 15.6435 39.506 15.4698 39.7541C15.1892 40.1719 15.1758 40.2894 15.2025 42.2218L15.2426 44.2587L15.5633 44.2979C16.1379 44.3762 16.2448 44.0498 16.2448 42.1435C16.2448 40.4591 16.2582 40.3808 16.5789 40.0805C16.8461 39.8063 17.0198 39.7541 17.7547 39.7541C18.9306 39.7541 19.2112 40.0413 19.3048 41.3601C19.3849 42.2218 19.4117 42.3002 19.6923 42.3393C20.2268 42.4177 20.3871 42.1565 20.3871 41.2295C20.3871 40.5114 20.4406 40.3547 20.7212 40.0805C20.9884 39.8063 21.1621 39.7541 21.8971 39.7541C22.632 39.7541 22.7923 39.7932 23.0729 40.0935C23.3669 40.4069 23.3936 40.5505 23.4604 42.261C23.5139 43.8278 23.5673 44.1281 23.7678 44.2456C23.9281 44.3501 24.0618 44.3501 24.2355 44.2456C24.4359 44.1151 24.4626 43.8539 24.5027 42.2871C24.5294 40.6158 24.5161 40.42 24.2355 39.8846C23.7544 38.9707 23.2467 38.7095 21.9238 38.7095C20.9751 38.7095 20.7613 38.7487 20.3337 39.0359L19.8393 39.3624L19.4117 39.0751C19.0643 38.827 18.7703 38.7617 17.8483 38.7356C16.8327 38.6965 16.659 38.7226 16.2448 38.9968Z" fill="#2C1969"/>
<path d="M27.4958 38.8664C27.3889 38.9709 27.3354 39.6368 27.3354 41.1644C27.3354 43.5016 27.4423 43.9064 28.1238 44.1936C28.351 44.2719 29.4868 44.3111 31.1972 44.2981C33.6157 44.2589 33.9364 44.2328 34.0701 44.0239C34.1769 43.8672 34.1769 43.7366 34.0701 43.5669C33.9364 43.371 33.6291 43.3449 31.2372 43.3057C28.5781 43.2796 28.5381 43.2666 28.4712 42.9793C28.4312 42.8226 28.3911 41.8042 28.3643 40.7335L28.3376 38.775L28.0036 38.7358C27.8165 38.7097 27.5893 38.775 27.4958 38.8664Z" fill="#2C1969"/>
<path d="M37.9585 38.8923C37.4107 39.1273 36.7292 39.8977 36.5689 40.4983C36.4887 40.7725 36.4219 41.6473 36.4219 42.4438C36.4219 44.0367 36.5421 44.3762 37.1034 44.2979C37.4107 44.2587 37.424 44.2065 37.4909 43.1489L37.5577 42.039L40.1232 41.9998L42.6888 41.9737L42.7289 43.0313C42.7556 43.88 42.8224 44.1281 42.9961 44.2456C43.1698 44.3501 43.3035 44.3501 43.4638 44.2456C43.6642 44.1151 43.7043 43.8539 43.7444 42.3654C43.7845 40.2633 43.5841 39.7018 42.5953 39.0882C41.994 38.7226 41.9405 38.7095 40.1767 38.7095C38.9741 38.7226 38.2258 38.7748 37.9585 38.8923ZM42.1409 40.0805C42.3547 40.2633 42.5685 40.5244 42.6086 40.668C42.6754 40.9292 42.622 40.9292 40.15 40.9292C37.4641 40.9292 37.384 40.9031 37.865 40.3286C38.2659 39.8455 38.5866 39.7671 40.19 39.7541C41.6599 39.7541 41.7668 39.7671 42.1409 40.0805Z" fill="#2C1969"/>
<path d="M46.7377 38.8662C46.6175 38.9837 46.5774 39.7018 46.5774 41.5298C46.5774 44.2456 46.6308 44.4415 47.299 44.2717C47.6197 44.1934 47.633 44.1412 47.6731 43.1097L47.7132 42.039L50.2788 41.9998L52.8443 41.9737L52.8844 43.0313C52.9111 43.88 52.9779 44.1281 53.165 44.2456C53.3254 44.3501 53.459 44.3501 53.6327 44.2456C53.8331 44.1151 53.8598 43.8148 53.8999 41.6995C53.94 38.8401 53.9267 38.7095 53.4055 38.7095C52.9245 38.7095 52.8577 38.8793 52.8577 40.0283V40.9292H50.252H47.6597L47.6197 39.8455C47.5796 38.814 47.5662 38.7748 47.2455 38.7356C47.0584 38.7095 46.8313 38.7748 46.7377 38.8662Z" fill="#2C1969"/>
<path d="M44.4786 24.7393C44.4786 30.6704 39.6704 35.4786 33.7393 35.4786C27.8081 35.4786 23 30.6704 23 24.7393C23 18.8081 27.8081 14 33.7393 14C39.6704 14 44.4786 18.8081 44.4786 24.7393ZM27.0107 24.7393C27.0107 28.4554 30.0232 31.4679 33.7393 31.4679C37.4554 31.4679 40.4679 28.4554 40.4679 24.7393C40.4679 21.0232 37.4554 18.0107 33.7393 18.0107C30.0232 18.0107 27.0107 21.0232 27.0107 24.7393Z" fill="#09ADE0"/>
</svg>
